<svg width="555" height="94" viewBox="0 0 555 94" fill="none" xmlns="http://www.w3.org/2000/svg">
<path d="M11.1602 1.0884C16.5746 1.0884 20.6492 4.47237 20.6768 9.20994C20.6492 13.9337 16.5746 17.2901 11.1602 17.3039C5.6768 17.2901 1.5884 13.9337 1.60221 9.20994C1.5884 4.47237 5.6768 1.0884 11.1602 1.0884ZM6.43646 9.20994C6.40884 11.779 8.42541 13.2845 11.1602 13.2845C13.8536 13.2845 15.8425 11.779 15.8425 9.20994C15.8425 6.66851 13.8536 5.16298 11.1602 5.16298C8.43923 5.16298 6.40884 6.66851 6.43646 9.20994ZM6.96133 23.174V19.3343H30.8149V28.989H11.9061V31.2818H31.7818V35.2044H7.0442V25.3425H25.8425V23.174H6.96133ZM25.8149 17.8702V0.0248618H30.8149V17.8702H25.8149ZM48.5758 5.6326C48.5758 9.94199 51.0897 14.0856 56.7112 15.8122L54.0731 19.6934C50.2885 18.4503 47.6642 16.0193 46.1311 12.9116C44.5979 16.4889 41.8355 19.3066 37.7747 20.6878L35.0952 16.779C41.0206 14.7901 43.562 10.0525 43.5896 5.14917V1.93094H48.5758V5.6326ZM39.9985 28.6989C39.9847 24.4033 44.6808 21.8481 52.167 21.8619C59.5427 21.8481 64.1698 24.4033 64.1698 28.6989C64.1698 33.0773 59.5427 35.605 52.167 35.5912C44.6808 35.605 39.9847 33.0773 39.9985 28.6989ZM44.9847 28.6989C44.9709 30.7293 47.5123 31.6823 52.167 31.6961C56.7941 31.6823 59.2526 30.7293 59.2526 28.6989C59.2526 26.779 56.7941 25.7431 52.167 25.7431C47.5123 25.7431 44.9709 26.779 44.9847 28.6989ZM58.8383 21.1298V0.0248618H63.8383V8.35359H68.6173V12.4834H63.8383V21.1298H58.8383ZM81.6959 2.41436C87.3589 2.41436 91.5439 6.04696 91.5716 11.1436C91.5439 16.2541 87.3589 19.8729 81.6959 19.8729C76.102 19.8729 71.8202 16.2541 71.834 11.1436C71.8202 6.04696 76.102 2.41436 81.6959 2.41436ZM70.3561 24.3619C76.6959 24.3619 85.4804 24.279 93.0909 23.2155L93.4638 26.8066C85.5909 28.3398 77.1517 28.4088 70.9224 28.4088L70.3561 24.3619ZM76.7787 11.1436C76.7787 13.9613 78.9058 15.5635 81.6959 15.5635C84.5412 15.5635 86.6959 13.9613 86.7097 11.1436C86.6959 8.3674 84.555 6.72376 81.6959 6.72376C78.892 6.72376 76.7787 8.3674 76.7787 11.1436ZM95.1075 35.6878V0.0248618H100.066V35.6878H95.1075ZM125.54 8.86464C125.526 14.9696 127.211 20.7569 132.225 23.4088L129.297 27.3591C126.217 25.6602 124.242 22.8011 123.068 19.279C121.797 23.2017 119.642 26.4889 116.438 28.395L113.33 24.7624C118.662 21.5856 120.678 15.2459 120.692 9.22376V3.09116H125.54V8.86464ZM132.253 33.9613V0.577347H136.963V13.9061H140.029V0.0248618H144.794V35.605H140.029V17.8978H136.963V33.9613H132.253ZM181.077 27.5525V31.6271H148.564V27.5525H162.279V22.1796H152.307V10.2182H172.403V6.35083H152.251V2.3453H177.334V14.1271H157.279V18.1326H178.163V22.1796H167.21V27.5525H181.077ZM215.606 17.3729V21.3232H202.167V27.511H197.112V21.3232H183.092V17.3729H215.606ZM186.449 8.10497C186.435 3.5884 191.601 0.743093 199.322 0.729281C207.043 0.743093 212.167 3.5884 212.181 8.10497C212.167 12.6215 207.043 15.4254 199.322 15.4254C191.601 15.4254 186.435 12.6215 186.449 8.10497ZM186.96 34.9834V24.3343H191.987V30.9365H212.029V34.9834H186.96ZM191.836 8.10497C191.808 10.2735 194.75 11.4337 199.322 11.4475C203.921 11.4337 206.836 10.2735 206.836 8.10497C206.836 5.83978 203.921 4.65193 199.322 4.66574C194.75 4.65193 191.808 5.83978 191.836 8.10497ZM254.962 0.0248618V13.6575H259.989V17.7735H254.962V35.5221H249.975V0.0248618H254.962ZM226.536 25.5635C234.934 21.337 239.451 15.674 240.39 7.74585H228.539V3.67127H245.473C245.445 14.3066 241.288 23.5055 229.34 29.3757L226.536 25.5635ZM290.305 8.94751V12.9392H265.595V0.591158H270.554V8.94751H290.305ZM261.493 20.0249V15.9917H293.979V20.0249H261.493ZM265.195 28.8646C265.195 24.6796 269.877 22.3039 277.64 22.2901C285.361 22.3039 290.002 24.6796 290.029 28.8646C290.002 33.105 285.361 35.4669 277.64 35.4669C269.877 35.4669 265.195 33.105 265.195 28.8646ZM270.278 28.8646C270.25 30.7155 272.723 31.6823 277.64 31.6685C282.474 31.6823 285.015 30.7155 285.029 28.8646C285.015 26.9862 282.474 26.1713 277.64 26.1575C272.723 26.1713 270.25 26.9862 270.278 28.8646ZM309.489 4.87293C309.461 9.63812 311.92 14.0304 317.638 15.7983L314.986 19.6934C311.16 18.3812 308.577 15.9227 307.086 12.732C305.497 16.4337 302.638 19.3481 298.37 20.7845L295.718 16.8066C301.823 14.8453 304.434 10.0801 304.461 5.10773V1.8895H309.489V4.87293ZM301.657 28.7127C301.644 24.3481 306.298 21.7928 313.867 21.7928C321.464 21.7928 326.105 24.3481 326.119 28.7127C326.105 33.105 321.464 35.605 313.867 35.5912C306.298 35.605 301.644 33.105 301.657 28.7127ZM306.616 28.7127C306.602 30.6878 309.157 31.7238 313.867 31.7099C318.591 31.7238 321.16 30.6878 321.174 28.7127C321.16 26.6823 318.591 25.6602 313.867 25.6602C309.157 25.6602 306.602 26.6823 306.616 28.7127ZM314.378 10.6326V6.55801H321.05V0.0248618H326.022V20.8812H321.05V10.6326H314.378ZM346.822 0.549724C355.012 0.549724 359.736 2.69061 359.75 6.59945C359.736 10.5773 355.012 12.7044 346.822 12.7044C338.617 12.7044 333.866 10.5773 333.88 6.59945C333.866 2.69061 338.617 0.549724 346.822 0.549724ZM330.634 18.3398V14.3895H363.065V18.3398H330.634ZM334.377 24.0442V20.384H359.101V29.4586H339.294V31.5994H360.026V35.3564H334.405V25.9779H354.184V24.0442H334.377ZM339.101 6.59945C339.073 8.35359 341.615 9.03039 346.822 9.0442C352.098 9.03039 354.612 8.35359 354.612 6.59945C354.612 5.03867 352.098 4.18232 346.822 4.19613C341.615 4.18232 339.073 5.03867 339.101 6.59945ZM402.848 3.31215V7.5663C402.835 12.4558 402.835 17.2901 401.578 24.6519L396.522 24.2514C397.862 17.3867 397.862 12.3177 397.876 7.5663V7.31768H377.779V3.31215H402.848ZM374.423 30.9227V26.8619H406.854V30.9227H374.423ZM438.938 0.0248618V35.6878H433.979V21.3232H427.902V17.2486H433.979V11.6409H427.999V7.59392H433.979V0.0248618H438.938ZM410.153 6.97237V3.00829H426.134V16.6685H415.209V23.6298C419.601 23.5884 423.482 23.3674 427.957 22.7044L428.358 26.779C423.04 27.6077 418.51 27.7182 413.04 27.7182H410.236V12.8011H421.245V6.97237H410.153ZM471.602 0.0248618V13.6575H476.63V17.7735H471.602V35.5221H466.616V0.0248618H471.602ZM443.177 25.5635C451.575 21.337 456.091 15.674 457.03 7.74585H445.18V3.67127H462.113C462.086 14.3066 457.928 23.5055 445.981 29.3757L443.177 25.5635ZM507.001 9.74862V13.6575H482.167V1.29558H487.126V9.74862H507.001ZM478.092 21.3646V17.4558H510.606V21.3646H478.092ZM481.836 34.8177V24.279H486.822V30.8122H507.222V34.8177H481.836ZM550.445 1.68232V4.45856C550.445 7.17956 550.445 10.232 549.575 14.1685L544.602 13.6989C545.321 10.3702 545.431 7.88398 545.445 5.57735H525.625V1.68232H550.445ZM521.992 20.0525V16.116H534.091V9.5H539.022V16.116H554.271V20.0525H521.992ZM523.898 31.6271C531.716 30.6602 535.431 26.9586 535.445 23.2983V22.1934H540.473V23.2983C540.459 26.9586 544.188 30.6602 552.116 31.6271L550.307 35.4392C544.423 34.6796 540.196 32.3729 537.973 29.1409C535.749 32.3729 531.522 34.6796 525.68 35.4392L523.898 31.6271ZM11.6575 60.1519C17.1271 60.1657 21.3674 63.7707 21.395 68.8674C21.3674 73.163 18.384 76.3812 14.1851 77.3066V82.1823C16.9751 82.0304 19.779 81.8094 22.4033 81.4503L22.7486 85.1381C15.3453 86.5331 7.33425 86.5331 1.29834 86.4503L0.635359 82.4309C3.19061 82.4171 6.1326 82.4171 9.21271 82.3481V77.3343C4.86188 76.4503 1.86464 73.2182 1.89227 68.8674C1.86464 63.7707 6.03591 60.1657 11.6575 60.1519ZM6.75414 68.8674C6.74033 71.6713 8.83978 73.3702 11.6575 73.3425C14.3923 73.3702 16.4779 71.6713 16.4917 68.8674C16.4779 66.0359 14.3923 64.3923 11.6575 64.3785C8.83978 64.3923 6.74033 66.0359 6.75414 68.8674ZM24.2956 93.605V58.0249H29.2956V71.9889H34.1298V76.174H29.2956V93.605H24.2956ZM65.3852 58.0249V93.6878H60.3438V58.0249H65.3852ZM37.7885 85.2072V61.174H55.0676V65.2348H42.7747V80.9945C49.1421 80.9669 53.0648 80.8011 57.5261 80L57.9819 84.0884C53.0924 85.0414 48.5482 85.2072 40.8548 85.2072H37.7885ZM102.718 85.2486V89.2956H70.2042V85.2486H102.718ZM71.5163 76.0773C79.2926 74.8895 83.7677 70.0414 83.7677 65.0552V65.0414H72.9113V61.0773H99.8727V65.0414H89.0163V65.0552C89.0025 70.0414 93.4915 74.7238 101.53 75.9254L99.555 79.8757C93.3395 78.7845 88.7124 75.732 86.4334 71.5193C84.1682 75.8149 79.6241 78.9917 73.4776 80.0829L71.5163 76.0773ZM142.957 73.9641V77.9006H132.64V85.4834H146.507V89.5442H113.993V85.4834H127.709V77.9006H117.819V60.5525H142.709V64.5166H122.805V73.9641H142.957ZM164.751 58.5221C172.666 58.5359 177.666 61.105 177.68 65.4282C177.666 69.6547 172.666 72.2099 164.751 72.1961C156.892 72.2099 151.796 69.6547 151.809 65.4282C151.796 61.105 156.892 58.5359 164.751 58.5221ZM148.564 78.0249V74.0331H180.994V78.0249H167.21V81.0773H177.099V93.2044H152.32V81.0773H162.251V78.0249H148.564ZM156.989 65.4282C156.961 67.3895 159.793 68.4116 164.751 68.3978C169.669 68.4116 172.541 67.3895 172.541 65.4282C172.541 63.3702 169.669 62.3204 164.751 62.3343C159.793 62.3204 156.961 63.3702 156.989 65.4282ZM157.224 89.2127H172.238V85.0276H157.224V89.2127ZM211.338 58.0249V64.9171H216.117V69.0193H211.338V75.8011H206.338V58.0249H211.338ZM184.184 74.4751V59.7099H201.255V74.4751H184.184ZM187.747 81.0635V77.2238H211.338V86.9199H192.719V89.2818H212.36V93.2044H187.802V83.3149H206.366V81.0635H187.747ZM189.115 70.5525H196.338V63.6464H189.115V70.5525ZM248.243 58.0249V84.6547H243.519V58.0249H248.243ZM217.262 76.2569C222.11 73.9227 224.058 69.2818 224.072 65.0552V60.4144H228.906V65.0552C228.892 69.1713 230.674 73.2597 235.218 75.3453L232.469 79.1851C229.61 77.8453 227.69 75.6077 226.53 72.9006C225.259 75.9807 223.146 78.5635 220.011 80.0276L217.262 76.2569ZM224.154 92.9834V81.5193H229.127V88.9641H249.154V92.9834H224.154ZM231.986 70.2486V66.1878H236.337V58.5912H241.047V83.605H236.337V70.2486H231.986ZM282.261 58.0249V93.6878H277.33V74.5994H271.087V70.6077H277.33V58.0249H282.261ZM253.89 85.6215V61.0221H270.52V65.0414H258.877V70.9392H269.222V74.8481H258.877V81.5608C263.808 81.5193 267.744 81.3398 272.164 80.6492L272.661 84.6409C267.468 85.4282 262.813 85.6077 256.722 85.6215H253.89ZM316.596 58.0249V77.1547H311.596V58.0249H316.596ZM287.383 67.9558C287.37 62.9696 291.555 59.5028 297.107 59.5166C302.646 59.5028 306.817 62.9696 306.817 67.9558C306.817 72.8177 302.646 76.2845 297.107 76.2845C291.555 76.2845 287.37 72.8177 287.383 67.9558ZM292.259 67.9558C292.232 70.6077 294.262 72.1823 297.107 72.1961C299.883 72.1823 301.9 70.6077 301.9 67.9558C301.9 65.2901 299.883 63.6602 297.107 63.674C294.262 63.6602 292.232 65.2901 292.259 67.9558ZM292.825 93.2044V78.7155H297.729V82.0166H311.624V78.7155H316.596V93.2044H292.825ZM297.729 89.1713H311.624V85.884H297.729V89.1713ZM351.305 58.0249V93.605H346.346V58.0249H351.305ZM323.321 84.8204V61.4365H328.252V80.5663C333.045 80.4834 338.211 80.0414 343.432 79.0193L344.053 83.1354C337.824 84.4337 331.94 84.8343 326.457 84.8204H323.321ZM384.024 58.0249V71.2431H389.273V75.3177H384.024V93.6878H379.038V58.0249H384.024ZM357.394 85.0414V61.3398H374.066V65.3591H362.353V80.9392C367.505 80.8978 371.773 80.6215 376.469 79.8066L377.021 83.9779C371.51 84.9171 366.662 85.0552 360.378 85.0414H357.394ZM395.141 90.3453C393.332 90.3453 391.826 88.8812 391.854 87.0718C391.826 85.2762 393.332 83.8122 395.141 83.8122C396.882 83.8122 398.401 85.2762 398.415 87.0718C398.401 88.8812 396.882 90.3453 395.141 90.3453Z" fill="white"/>
</svg>
